# xmcd
#
# Track frame offsets:
#	150
#	19059
#	35027
#	48685
#	72265
#	85630
#	95486
#	109837
#	121719
#	146842
#
# Disc length: 2144
#
# Revision: 1
# Processed by: cddbd v1.5.1PL0 Copyright (c) Steve Scherf et al.
# Submitted via: CDex 1.51
# Normalized: r0:TDELIM( - ),TSWAP
#
DISCID=87085e0a
DTITLE=Best of Blues - CD 2
DYEAR=2004
DGENRE=Blues
TTITLE0=Jimmy McGriff - Jumping The Blues
TTITLE1=Memphis Slim - Cow Cow Blues
TTITLE2=Leadbelly - Where Did You Sleep Last Night
TTITLE3=B.B. King - You've Done Lost A Good Thing
TTITLE4=Lightnin' Hopkins - Mojo Hand
TTITLE5=Buddy Guy - First Time I Met The Blues
TTITLE6=Ray Charles - Blues Is My Middle Name
TTITLE7=Charles Brown - Trouble Blues
TTITLE8=Roy Brown - Boogie Woogie Blues
TTITLE9=Canned Heat - Big Road Blues
EXTD=YEAR: 2004
EXTT0=
EXTT1=
EXTT2=
EXTT3=
EXTT4=
EXTT5=
EXTT6=
EXTT7=
EXTT8=
EXTT9=
PLAYORDER=
